<svg width="46.00000000000001" height="46.00000000000001" xmlns="http://www.w3.org/2000/svg">
 <title/>

 <g>
  <title>background</title>
  <rect fill="none" id="canvas_background" height="48" width="48" y="-1" x="-1"/>
 </g>
 <g>
  <title>Layer 1</title>
  <path stroke="null" fill="#aff6a6" id="svg_1" d="m22.88359,0.364717a22.827894,22.865164 0 1 0 22.827894,22.865164a22.828188,22.865459 0 0 0 -22.827894,-22.865164zm0,44.714098a21.813443,21.849056 0 1 1 15.424311,-6.399441a21.742996,21.778495 0 0 1 -15.424311,6.399441z"/>
  <path stroke="null" fill="#aff6a6" id="svg_2" d="m32.00725,22.132087l-12.316177,-7.846751a1.088452,1.088452 0 0 0 -0.586383,-0.17293a1.106305,1.106305 0 0 0 -0.773661,0.319514a1.128637,1.128637 0 0 0 -0.335713,0.809294l0,15.693502a1.128624,1.128624 0 0 0 0.335713,0.809269a1.106134,1.106134 0 0 0 0.773661,0.319514a1.088452,1.088452 0 0 0 0.586383,-0.17293l12.316177,-7.846725a1.138544,1.138544 0 0 0 0,-1.911757zm-0.459366,1.190842l-12.316152,7.846725a0.231006,0.231006 0 0 1 -0.127043,0.039027a0.252599,0.252599 0 0 1 -0.174284,-0.074168a0.270977,0.270977 0 0 1 -0.080272,-0.199797l0,-15.693502a0.270883,0.270883 0 0 1 0.080272,-0.199797a0.252646,0.252646 0 0 1 0.174284,-0.074194a0.231489,0.231489 0 0 1 0.127043,0.039027l12.316177,7.846777a0.283881,0.283881 0 0 1 -0.000026,0.469902z"/>
 </g>
</svg>