<svg width="36" height="36" xmlns="http://www.w3.org/2000/svg">
 <title/>

 <g>
  <title>background</title>
  <rect fill="none" id="canvas_background" height="38" width="38" y="-1" x="-1"/>
 </g>
 <g>
  <title>Layer 1</title>
  <path stroke="null" fill="#aff6a6" id="svg_1" d="m18.104473,0.155115a17.787868,17.818207 0 1 0 17.787868,17.818207a17.788098,17.818437 0 0 0 -17.787868,-17.818207zm0,34.844494a16.997391,17.026382 0 1 1 12.018875,-4.986912a16.942498,16.971395 0 0 1 -12.018875,4.986912z"/>
  <path stroke="null" fill="#aff6a6" id="svg_2" d="m24.88905,17.293588l-9.653856,-6.150561a0.853167,0.853167 0 0 0 -0.459628,-0.135548a0.867161,0.867161 0 0 0 -0.606423,0.250446a0.884666,0.884666 0 0 0 -0.263143,0.634353l0,12.301122a0.884656,0.884656 0 0 0 0.263143,0.634333a0.867027,0.867027 0 0 0 0.606423,0.250446a0.853167,0.853167 0 0 0 0.459628,-0.135548l9.653856,-6.150541a0.892431,0.892431 0 0 0 0,-1.498503zm-0.360067,0.933424l-9.653836,6.150541a0.181071,0.181071 0 0 1 -0.099581,0.030591a0.197996,0.197996 0 0 1 -0.13661,-0.058136a0.212401,0.212401 0 0 1 -0.06292,-0.156608l0,-12.301122a0.212328,0.212328 0 0 1 0.06292,-0.156608a0.198033,0.198033 0 0 1 0.13661,-0.058156a0.181449,0.181449 0 0 1 0.099581,0.030591l9.653856,6.150581a0.222516,0.222516 0 0 1 -0.00002,0.368326z"/>
 </g>
</svg>