
<svg width="64" height="64" xmlns="http://www.w3.org/2000/svg">
 <title/>

 <g>
  <title>background</title>
  <rect fill="none" id="canvas_background" height="66" width="66" y="-1" x="-1"/>
 </g>
 <g>
  <title>Layer 1</title>
  <path fill="#aff6a6" stroke="null" id="svg_1" d="m31.922463,0.210225a31.866747,31.789491 0 1 0 31.866747,31.789491a31.867157,31.789901 0 0 0 -31.866747,-31.789491zm0,62.166115a30.450617,30.376794 0 1 1 21.531667,-8.897158a30.352276,30.278692 0 0 1 -21.531667,8.897158z"/>
  <path fill="#aff6a6" stroke="null" id="svg_2" d="m45.614624,29.881578l-19.38753,-12.351975a1.713388,1.713388 0 0 0 -0.923056,-0.272217a1.741492,1.741492 0 0 0 -1.21786,0.502963a1.776646,1.776646 0 0 0 -0.528462,1.273952l0,24.70395a1.776626,1.776626 0 0 0 0.528462,1.273911a1.741222,1.741222 0 0 0 1.21786,0.502963a1.713388,1.713388 0 0 0 0.923056,-0.272217l19.38753,-12.351935a1.792241,1.792241 0 0 0 0,-3.009395zm-0.723112,1.874566l-19.387489,12.351935a0.363638,0.363638 0 0 1 -0.199985,0.061434a0.397628,0.397628 0 0 1 -0.27435,-0.116752a0.426559,0.426559 0 0 1 -0.12636,-0.31451l0,-24.70395a0.426411,0.426411 0 0 1 0.12636,-0.31451a0.397702,0.397702 0 0 1 0.27435,-0.116792a0.364399,0.364399 0 0 1 0.199985,0.061434l19.38753,12.352015a0.446871,0.446871 0 0 1 -0.00004,0.739697z"/>
 </g>
</svg>